<svg xmlns="http://www.w3.org/2000/svg" viewBox="-8 0 548 130" width="548" height="130"><path d="M27.900000000000002 101.3Q21.0 101.3 15.15 99.94999999999999Q9.3 98.6 5.800000000000001 95.65Q2.3000000000000003 92.7 2.3000000000000003 87.8Q2.3000000000000003 83.5 4.9 80.7Q7.5 77.9 11.8 77.9Q14.5 77.9 17.25 78.75Q20.0 79.6 23.1 80.4Q26.200000000000003 81.2 29.8 81.2Q33.0 81.2 34.1 80.85Q35.2 80.5 35.2 79.5Q35.2 78.3 33.85 77.9Q32.5 77.5 29.3 76.9L22.1 75.5Q17.6 74.6 13.350000000000001 73.15Q9.1 71.7 6.35 68.80000000000001Q3.6 65.9 3.6 60.9Q3.6 54.099999999999994 9.65 50.3Q15.700000000000001 46.5 27.200000000000003 46.5Q33.800000000000004 46.5 39.050000000000004 47.8Q44.300000000000004 49.099999999999994 47.400000000000006 51.64999999999999Q50.5 54.199999999999996 50.5 58.0Q50.6 62.1 48.3 64.6Q46.0 67.1 42.5 67.1Q40.0 67.1 37.45 66.44999999999999Q34.9 65.8 31.95 65.05Q29.0 64.3 25.200000000000003 64.19999999999999Q22.5 64.0 20.8 64.5Q19.1 65.0 19.1 66.1Q19.1 67.3 21.1 67.75Q23.1 68.2 27.1 68.9L34.2 70.2Q40.7 71.3 44.550000000000004 72.94999999999999Q48.400000000000006 74.6 50.10000000000001 77.5Q51.800000000000004 80.4 51.800000000000004 85.5Q51.800000000000004 90.8 48.75 94.35Q45.7 97.9 40.3 99.6Q34.9 101.3 27.900000000000002 101.3ZM82.4 100.3Q74.6 100.3 68.6 97.05Q62.6 93.8 59.2 87.8Q55.8 81.8 55.8 73.7Q55.8 65.6 59.2 59.599999999999994Q62.6 53.599999999999994 68.65 50.3Q74.7 47.0 82.6 47.0Q88.80000000000001 47.0 93.55000000000001 48.3Q98.30000000000001 49.599999999999994 101.05000000000001 52.199999999999996Q103.80000000000001 54.8 103.80000000000001 58.699999999999996Q103.80000000000001 63.4 101.4 66.05Q99.0 68.7 94.5 68.7Q91.5 68.7 88.55 67.80000000000001Q85.6 66.9 81.0 66.9Q77.2 66.9 74.6 68.1Q72.0 69.3 72.0 72.5Q72.0 75.8 74.6 77.25Q77.2 78.7 81.0 78.7Q84.1 78.7 86.2 78.1Q88.30000000000001 77.5 90.2 76.9Q92.1 76.3 94.5 76.3Q99.6 76.3 102.05 79.25Q104.5 82.2 104.5 86.8Q104.5 90.7 101.6 93.75Q98.7 96.8 93.7 98.55Q88.7 100.3 82.4 100.3ZM118.4 100.0Q113.70000000000002 100.0 111.10000000000002 97.3Q108.50000000000001 94.6 108.50000000000001 90.5V57.699999999999996Q108.50000000000001 53.4 111.10000000000002 50.55Q113.70000000000002 47.699999999999996 118.4 47.699999999999996Q123.10000000000001 47.699999999999996 125.60000000000002 50.55Q128.10000000000002 53.4 128.10000000000002 57.5V59.599999999999994H130.0Q130.4 54.3 134.0 50.9Q137.60000000000002 47.5 142.5 47.5Q147.4 47.5 150.25 50.5Q153.10000000000002 53.5 153.10000000000002 58.5Q153.10000000000002 63.199999999999996 150.40000000000003 66.3Q147.70000000000002 69.4 143.5 69.4Q140.0 69.4 137.65 67.75Q135.3 66.1 134.20000000000002 63.9Q131.0 63.5 129.55 64.55Q128.10000000000002 65.6 128.10000000000002 68.7V90.5Q128.10000000000002 94.6 125.60000000000002 97.3Q123.10000000000001 100.0 118.4 100.0ZM156.3 36.099999999999994Q156.3 31.799999999999997 158.95 29.15Q161.6 26.5 166.3 26.5Q171.3 26.5 173.75 29.1Q176.2 31.700000000000003 176.2 36.0Q176.2 40.199999999999996 173.75 42.75Q171.3 45.3 166.3 45.3Q161.4 45.3 158.85000000000002 42.75Q156.3 40.199999999999996 156.3 36.099999999999994ZM166.3 100.0Q161.6 100.0 159.3 97.4Q157.0 94.8 157.0 90.9V56.699999999999996Q157.0 52.4 159.3 49.9Q161.6 47.4 166.3 47.4Q171.0 47.4 173.35 49.9Q175.7 52.4 175.7 56.5V90.9Q175.7 94.8 173.25 97.4Q170.8 100.0 166.3 100.0ZM216.6 100.0Q211.1 100.0 207.45 96.6Q203.8 93.2 202.8 87.8H201.0V110.8Q201.0 114.9 198.7 117.75Q196.4 120.6 191.7 120.6Q187.2 120.6 184.75 117.75Q182.3 114.9 182.3 110.6V73.2Q182.3 68.2 181.95 64.75Q181.6 61.3 181.3 58.5Q180.9 54.3 183.0 51.349999999999994Q185.1 48.4 189.8 47.8Q195.9 47.0 198.45 49.95Q201.0 52.9 201.0 59.099999999999994V63.9L201.4 64.0Q201.9 60.099999999999994 203.75 56.349999999999994Q205.6 52.599999999999994 209.0 50.14999999999999Q212.4 47.699999999999996 217.6 47.699999999999996Q226.3 47.699999999999996 230.55 54.64999999999999Q234.8 61.599999999999994 234.8 73.2Q234.8 100.0 216.6 100.0ZM200.6 73.0Q200.6 74.6 201.0 75.5Q201.6 77.4 203.55 78.25Q205.5 79.1 209.4 79.1Q214.4 79.1 216.25 77.6Q218.1 76.1 218.1 73.0Q218.1 69.8 216.3 68.35Q214.5 66.9 209.5 66.9Q205.5 66.9 203.55 67.75Q201.6 68.6 201.0 70.5Q200.6 71.4 200.6 73.0ZM268.8 100.3Q263.5 100.3 259.25 97.9Q255.00000000000003 95.5 252.60000000000002 91.05Q250.20000000000002 86.6 250.20000000000002 80.6V63.0L246.50000000000003 63.5Q243.50000000000003 63.9 241.20000000000005 61.4Q238.90000000000003 58.9 238.90000000000003 55.099999999999994Q238.90000000000003 51.3 241.20000000000005 48.849999999999994Q243.50000000000003 46.4 246.50000000000003 46.8L250.20000000000002 47.3L250.10000000000002 40.5Q250.00000000000003 36.5 252.40000000000003 34.15Q254.8 31.799999999999997 259.40000000000003 31.799999999999997Q264.0 31.799999999999997 266.5 34.15Q269.0 36.5 268.8 40.5L268.6 47.3L273.90000000000003 46.599999999999994Q279.3 45.8 282.1 48.55Q284.90000000000003 51.3 284.90000000000003 55.099999999999994Q284.90000000000003 58.9 282.15000000000003 61.650000000000006Q279.40000000000003 64.4 274.20000000000005 63.699999999999996L268.6 63.0V77.9Q268.6 79.2 269.5 80.25Q270.40000000000003 81.3 271.70000000000005 80.9Q273.20000000000005 80.5 274.85 79.2Q276.5 77.9 279.1 77.9Q283.0 77.9 285.1 80.7Q287.20000000000005 83.5 287.20000000000005 87.6Q287.20000000000005 90.8 284.95000000000005 93.75Q282.70000000000005 96.7 278.6 98.5Q274.5 100.3 268.8 100.3ZM301.3 100.0Q296.9 100.0 294.29999999999995 97.35Q291.7 94.7 291.7 90.8V32.89999999999999Q291.7 28.700000000000003 294.25 25.799999999999997Q296.8 22.89999999999999 301.5 22.89999999999999Q306.1 22.89999999999999 308.45000000000005 25.799999999999997Q310.8 28.700000000000003 310.8 33.0V63.3L311.1 63.4Q311.6 59.199999999999996 313.70000000000005 55.64999999999999Q315.8 52.099999999999994 319.6 49.89999999999999Q323.4 47.699999999999996 328.9 47.699999999999996Q336.3 47.699999999999996 340.8 51.8Q345.3 55.9 345.3 63.0Q345.3 67.9 343.35 70.75Q341.4 73.6 338.1 74.69999999999999Q334.8 75.8 330.8 75.7V77.4Q339.7 77.4 343.45 80.95Q347.2 84.5 347.2 89.9Q347.2 94.9 344.2 97.6Q341.2 100.3 337.0 100.2Q332.4 100.1 329.4 97.5Q326.4 94.9 324.4 90.5L320.1 81.4Q318.8 78.7 316.75 77.5Q314.7 76.3 310.8 76.6V90.8Q310.8 94.7 308.25 97.35Q305.7 100.0 301.3 100.0ZM312.9 69.8Q312.9 71.2 314.35 71.85Q315.8 72.5 320.4 72.5Q324.9 72.5 326.4 71.9Q327.9 71.3 327.9 69.8Q327.9 68.4 326.4 67.7Q324.9 67.0 320.5 67.0Q315.8 67.0 314.35 67.7Q312.9 68.4 312.9 69.8ZM350.90000000000003 36.099999999999994Q350.90000000000003 31.799999999999997 353.55000000000007 29.15Q356.20000000000005 26.5 360.90000000000003 26.5Q365.90000000000003 26.5 368.35 29.1Q370.8 31.700000000000003 370.8 36.0Q370.8 40.199999999999996 368.35 42.75Q365.90000000000003 45.3 360.90000000000003 45.3Q356.0 45.3 353.45000000000005 42.75Q350.90000000000003 40.199999999999996 350.90000000000003 36.099999999999994ZM360.90000000000003 100.0Q356.20000000000005 100.0 353.90000000000003 97.4Q351.6 94.8 351.6 90.9V56.699999999999996Q351.6 52.4 353.90000000000003 49.9Q356.20000000000005 47.4 360.90000000000003 47.4Q365.6 47.4 367.95000000000005 49.9Q370.3 52.4 370.3 56.5V90.9Q370.3 94.8 367.85 97.4Q365.40000000000003 100.0 360.90000000000003 100.0ZM404.8 100.3Q399.5 100.3 395.25 97.9Q391.0 95.5 388.6 91.05Q386.20000000000005 86.6 386.20000000000005 80.6V63.0L382.5 63.5Q379.5 63.9 377.20000000000005 61.4Q374.90000000000003 58.9 374.90000000000003 55.099999999999994Q374.90000000000003 51.3 377.20000000000005 48.849999999999994Q379.5 46.4 382.5 46.8L386.20000000000005 47.3L386.1 40.5Q386.0 36.5 388.4 34.15Q390.8 31.799999999999997 395.40000000000003 31.799999999999997Q400.0 31.799999999999997 402.5 34.15Q405.0 36.5 404.8 40.5L404.6 47.3L409.90000000000003 46.599999999999994Q415.3 45.8 418.1 48.55Q420.90000000000003 51.3 420.90000000000003 55.099999999999994Q420.90000000000003 58.9 418.15000000000003 61.650000000000006Q415.40000000000003 64.4 410.20000000000005 63.699999999999996L404.6 63.0V77.9Q404.6 79.2 405.5 80.25Q406.40000000000003 81.3 407.70000000000005 80.9Q409.20000000000005 80.5 410.85 79.2Q412.5 77.9 415.1 77.9Q419.0 77.9 421.1 80.7Q423.20000000000005 83.5 423.20000000000005 87.6Q423.20000000000005 90.8 420.95000000000005 93.75Q418.70000000000005 96.7 414.6 98.5Q410.5 100.3 404.8 100.3ZM456.7 100.3Q451.4 100.3 447.15 97.9Q442.9 95.5 440.5 91.05Q438.1 86.6 438.1 80.6V63.0L434.4 63.5Q431.4 63.9 429.1 61.4Q426.8 58.9 426.8 55.099999999999994Q426.8 51.3 429.1 48.849999999999994Q431.4 46.4 434.4 46.8L438.1 47.3L438.0 40.5Q437.9 36.5 440.29999999999995 34.15Q442.7 31.799999999999997 447.3 31.799999999999997Q451.9 31.799999999999997 454.4 34.15Q456.9 36.5 456.7 40.5L456.5 47.3L461.8 46.599999999999994Q467.2 45.8 470.0 48.55Q472.8 51.3 472.8 55.099999999999994Q472.8 58.9 470.05 61.650000000000006Q467.3 64.4 462.1 63.699999999999996L456.5 63.0V77.9Q456.5 79.2 457.4 80.25Q458.3 81.3 459.6 80.9Q461.1 80.5 462.75 79.2Q464.4 77.9 467.0 77.9Q470.9 77.9 473.0 80.7Q475.1 83.5 475.1 87.6Q475.1 90.8 472.85 93.75Q470.6 96.7 466.5 98.5Q462.4 100.3 456.7 100.3ZM499.00000000000006 120.6Q492.3 120.6 488.05 118.4Q483.8 116.2 481.40000000000003 112.6Q479.40000000000003 109.5 479.15000000000003 106.1Q478.90000000000003 102.7 480.40000000000003 99.75Q481.90000000000003 96.8 484.90000000000003 95.2Q488.00000000000006 93.5 491.1 93.85Q494.20000000000005 94.2 496.80000000000007 96.15Q499.40000000000003 98.1 500.8 101.2Q502.3 104.5 503.85 106.05Q505.40000000000003 107.6 507.90000000000003 106.7Q510.3 105.9 509.65000000000003 102.30000000000001Q509.00000000000006 98.7 507.00000000000006 93.8H503.3Q499.00000000000006 93.8 494.70000000000005 90.69999999999999Q490.40000000000003 87.6 487.50000000000006 80.9L479.3 61.9Q477.40000000000003 57.4 478.95000000000005 53.599999999999994Q480.50000000000006 49.8 484.6 48.099999999999994Q488.40000000000003 46.4 492.1 47.9Q495.8 49.4 497.90000000000003 54.3L505.50000000000006 72.0Q507.40000000000003 76.3 509.65000000000003 78.19999999999999Q511.90000000000003 80.1 514.4000000000001 78.8Q516.6 77.6 516.8 75.44999999999999Q517.0 73.3 514.7 70.2Q513.7 68.8 512.35 67.1Q511.00000000000006 65.4 509.95000000000005 63.150000000000006Q508.90000000000003 60.9 508.90000000000003 58.099999999999994Q508.90000000000003 53.4 512.1 50.349999999999994Q515.3000000000001 47.3 520.5 47.3Q525.2 47.3 528.0500000000001 50.3Q530.9000000000001 53.3 530.9000000000001 58.099999999999994Q530.9000000000001 61.5 530.1000000000001 65.6Q529.3000000000001 69.7 528.3000000000001 73.2L521.1 99.5Q519.5 105.4 516.9000000000001 110.2Q514.3000000000001 115.0 510.00000000000006 117.8Q505.70000000000005 120.6 499.00000000000006 120.6Z" fill="#1f1726"/></svg>